<svg width="64" height="64" viewBox="0 0 64 64" xmlns="http://www.w3.org/2000/svg">
  <defs>
    <linearGradient id="brainGradient" x1="0%" y1="0%" x2="100%" y2="100%">
      <stop offset="0%" style="stop-color:#8B5CF6"/>
      <stop offset="100%" style="stop-color:#A855F7"/>
    </linearGradient>
  </defs>
  
  <!-- Brain outline -->
  <path d="M32 8 C42 8 50 16 50 26 C50 28 49.5 29.5 49 31 C52 33 54 36 54 40 C54 45 50 49 45 49 C43 52 40 54 37 55 C35 58 33.5 60 32 60 C30.5 60 29 58 27 55 C24 54 21 52 19 49 C14 49 10 45 10 40 C10 36 12 33 15 31 C14.5 29.5 14 28 14 26 C14 16 22 8 32 8 Z" 
        fill="url(#brainGradient)" stroke="#7C3AED" stroke-width="1.5"/>
  
  <!-- Circuit patterns inside brain -->
  <g stroke="#00D4FF" stroke-width="1" fill="none">
    <path d="M20 22 L24 22 L24 26 L28 26"/>
    <path d="M36 26 L40 26 L40 22 L44 22"/>
    <path d="M22 32 L26 32 L26 36 L30 36"/>
    <path d="M34 36 L38 36 L38 32 L42 32"/>
    <path d="M24 42 L28 42 L28 46 L32 46"/>
    <path d="M36 46 L40 46 L40 42 L44 42"/>
  </g>
  
  <!-- Circuit nodes -->
  <g fill="#00D4FF">
    <circle cx="24" cy="22" r="1.5"/>
    <circle cx="28" cy="26" r="1.5"/>
    <circle cx="40" cy="22" r="1.5"/>
    <circle cx="36" cy="26" r="1.5"/>
    <circle cx="26" cy="32" r="1.5"/>
    <circle cx="30" cy="36" r="1.5"/>
    <circle cx="38" cy="32" r="1.5"/>
    <circle cx="34" cy="36" r="1.5"/>
    <circle cx="32" cy="32" r="2"/>
  </g>
</svg>