<svg width="64" height="64" viewBox="0 0 64 64" xmlns="http://www.w3.org/2000/svg">
  <defs>
    <linearGradient id="robotFaceGradient" x1="0%" y1="0%" x2="100%" y2="100%">
      <stop offset="0%" style="stop-color:#8B5CF6"/>
      <stop offset="100%" style="stop-color:#A855F7"/>
    </linearGradient>
    <filter id="eyeGlow">
      <feGaussianBlur stdDeviation="1" result="coloredBlur"/>
      <feMerge> 
        <feMergeNode in="coloredBlur"/>
        <feMergeNode in="SourceGraphic"/>
      </feMerge>
    </filter>
  </defs>
  
  <!-- Robot head -->
  <rect x="12" y="16" width="40" height="40" rx="8" ry="8" fill="url(#robotFaceGradient)" stroke="#7C3AED" stroke-width="2"/>
  
  <!-- Antenna -->
  <line x1="32" y1="16" x2="32" y2="10" stroke="#7C3AED" stroke-width="2"/>
  <circle cx="32" cy="8" r="2" fill="#00D4FF" filter="url(#eyeGlow)"/>
  
  <!-- Eyes -->
  <circle cx="24" cy="28" r="4" fill="#00D4FF" filter="url(#eyeGlow)"/>
  <circle cx="40" cy="28" r="4" fill="#00D4FF" filter="url(#eyeGlow)"/>
  
  <!-- Eye pupils -->
  <circle cx="24" cy="28" r="2" fill="#0A0A0A"/>
  <circle cx="40" cy="28" r="2" fill="#0A0A0A"/>
  
  <!-- Mouth grille -->
  <rect x="22" y="38" width="20" height="8" rx="4" ry="4" fill="#1E293B"/>
  <g stroke="#64748B" stroke-width="0.5">
    <line x1="24" y1="40" x2="24" y2="44"/>
    <line x1="27" y1="40" x2="27" y2="44"/>
    <line x1="30" y1="40" x2="30" y2="44"/>
    <line x1="33" y1="40" x2="33" y2="44"/>
    <line x1="36" y1="40" x2="36" y2="44"/>
    <line x1="39" y1="40" x2="39" y2="44"/>
  </g>
  
  <!-- Side panels -->
  <rect x="8" y="24" width="3" height="16" rx="1.5" ry="1.5" fill="#7C3AED"/>
  <rect x="53" y="24" width="3" height="16" rx="1.5" ry="1.5" fill="#7C3AED"/>
  
  <!-- Status lights -->
  <circle cx="18" cy="22" r="1" fill="#00D4FF"/>
  <circle cx="46" cy="22" r="1" fill="#FF00FF"/>
</svg>