<svg width="64" height="64" viewBox="0 0 64 64" xmlns="http://www.w3.org/2000/svg">
  <defs>
    <linearGradient id="menuGradient" x1="0%" y1="0%" x2="100%" y2="100%">
      <stop offset="0%" style="stop-color:#8B5CF6"/>
      <stop offset="100%" style="stop-color:#A855F7"/>
    </linearGradient>
  </defs>
  
  <!-- Menu container -->
  <rect x="8" y="8" width="48" height="48" fill="#1E293B" stroke="#64748B" stroke-width="1" rx="4"/>
  
  <!-- Menu items -->
  <!-- Item 1 -->
  <g transform="translate(12, 16)">
    <circle cx="0" cy="0" r="2" fill="#00D4FF"/>
    <rect x="6" y="-1" width="32" height="2" fill="url(#menuGradient)" rx="1"/>
    <rect x="6" y="2" width="20" height="1" fill="#64748B" rx="0.5"/>
  </g>
  
  <!-- Item 2 -->
  <g transform="translate(12, 26)">
    <circle cx="0" cy="0" r="2" fill="#FF00FF"/>
    <rect x="6" y="-1" width="32" height="2" fill="url(#menuGradient)" rx="1"/>
    <rect x="6" y="2" width="24" height="1" fill="#64748B" rx="0.5"/>
  </g>
  
  <!-- Item 3 -->
  <g transform="translate(12, 36)">
    <circle cx="0" cy="0" r="2" fill="#00FF88"/>
    <rect x="6" y="-1" width="32" height="2" fill="url(#menuGradient)" rx="1"/>
    <rect x="6" y="2" width="16" height="1" fill="#64748B" rx="0.5"/>
  </g>
  
  <!-- Item 4 -->
  <g transform="translate(12, 46)">
    <circle cx="0" cy="0" r="2" fill="#00D4FF"/>
    <rect x="6" y="-1" width="32" height="2" fill="url(#menuGradient)" rx="1"/>
    <rect x="6" y="2" width="28" height="1" fill="#64748B" rx="0.5"/>
  </g>
  
  <!-- Navigation arrows -->
  <g transform="translate(48, 16)" fill="#00D4FF">
    <polygon points="0,0 4,2 0,4" opacity="0.6"/>
  </g>
  <g transform="translate(48, 26)" fill="#FF00FF">
    <polygon points="0,0 4,2 0,4" opacity="0.6"/>
  </g>
  <g transform="translate(48, 36)" fill="#00FF88">
    <polygon points="0,0 4,2 0,4" opacity="0.6"/>
  </g>
  <g transform="translate(48, 46)" fill="#00D4FF">
    <polygon points="0,0 4,2 0,4" opacity="0.6"/>
  </g>
  
  <!-- Active indicator -->
  <rect x="6" y="24" width="2" height="4" fill="#8B5CF6" rx="1"/>
  
  <!-- Status indicators -->
  <g fill="#FF0066" opacity="0.8">
    <circle cx="46" cy="18" r="1"/>
    <circle cx="46" cy="38" r="1"/>
  </g>
  
  <!-- Header separator -->
  <line x1="12" y1="12" x2="52" y2="12" stroke="#64748B" stroke-width="0.5"/>
</svg>