<svg width="64" height="64" viewBox="0 0 64 64" xmlns="http://www.w3.org/2000/svg">
  <defs>
    <linearGradient id="settingsGradient" x1="0%" y1="0%" x2="100%" y2="100%">
      <stop offset="0%" style="stop-color:#8B5CF6"/>
      <stop offset="100%" style="stop-color:#A855F7"/>
    </linearGradient>
    <filter id="settingsGlow">
      <feGaussianBlur stdDeviation="1" result="coloredBlur"/>
      <feMerge> 
        <feMergeNode in="coloredBlur"/>
        <feMergeNode in="SourceGraphic"/>
      </feMerge>
    </filter>
  </defs>
  
  <!-- Gear teeth -->
  <g transform="translate(32, 32)">
    <!-- Main gear body -->
    <circle cx="0" cy="0" r="18" fill="url(#settingsGradient)" filter="url(#settingsGlow)" stroke="#7C3AED" stroke-width="2"/>
    
    <!-- Gear teeth -->
    <g fill="url(#settingsGradient)" stroke="#7C3AED" stroke-width="1">
      <!-- Top -->
      <rect x="-2" y="-22" width="4" height="6" rx="1"/>
      <!-- Top right -->
      <rect x="13" y="-17" width="6" height="4" rx="1" transform="rotate(45)"/>
      <!-- Right -->
      <rect x="18" y="-2" width="6" height="4" rx="1"/>
      <!-- Bottom right -->
      <rect x="13" y="13" width="6" height="4" rx="1" transform="rotate(135)"/>
      <!-- Bottom -->
      <rect x="-2" y="16" width="4" height="6" rx="1"/>
      <!-- Bottom left -->
      <rect x="-17" y="13" width="6" height="4" rx="1" transform="rotate(225)"/>
      <!-- Left -->
      <rect x="-24" y="-2" width="6" height="4" rx="1"/>
      <!-- Top left -->
      <rect x="-17" y="-17" width="6" height="4" rx="1" transform="rotate(315)"/>
    </g>
    
    <!-- Center hole -->
    <circle cx="0" cy="0" r="6" fill="#1E293B" stroke="#64748B" stroke-width="1"/>
    
    <!-- Center screw pattern -->
    <g stroke="#00D4FF" stroke-width="0.5">
      <line x1="-3" y1="-3" x2="3" y2="3"/>
      <line x1="3" y1="-3" x2="-3" y2="3"/>
    </g>
    
    <!-- Inner detail ring -->
    <circle cx="0" cy="0" r="12" fill="none" stroke="#00D4FF" stroke-width="0.5" opacity="0.6"/>
  </g>
  
  <!-- Adjustment indicators -->
  <g fill="#00D4FF" opacity="0.8">
    <circle cx="16" cy="16" r="1"/>
    <circle cx="48" cy="16" r="1"/>
    <circle cx="16" cy="48" r="1"/>
    <circle cx="48" cy="48" r="1"/>
  </g>
  
  <!-- Setting labels (small dots) -->
  <g fill="#FF00FF" opacity="0.6">
    <circle cx="32" cy="8" r="0.8"/>
    <circle cx="56" cy="32" r="0.8"/>
    <circle cx="32" cy="56" r="0.8"/>
    <circle cx="8" cy="32" r="0.8"/>
  </g>
</svg>