<svg width="200" height="200" viewBox="0 0 200 200" xmlns="http://www.w3.org/2000/svg">
  <defs>
    <linearGradient id="purpleGradient" x1="0%" y1="0%" x2="100%" y2="100%">
      <stop offset="0%" style="stop-color:#8B5CF6"/>
      <stop offset="100%" style="stop-color:#A855F7"/>
    </linearGradient>
  </defs>
  
  <!-- Brain outline -->
  <path d="M100 20 C140 20 170 50 170 90 C170 95 169 100 168 105 C175 110 180 118 180 127 C180 140 169 150 155 150 C150 155 144 160 137 163 C130 175 115 185 100 185 C85 185 70 175 63 163 C56 160 50 155 45 150 C31 150 20 140 20 127 C20 118 25 110 32 105 C31 100 30 95 30 90 C30 50 60 20 100 20 Z" fill="url(#purpleGradient)" stroke="#7C3AED" stroke-width="2"/>
  
  <!-- Circuit lines inside brain -->
  <g stroke="#00D4FF" stroke-width="2" fill="none">
    <!-- Main circuits -->
    <path d="M60 70 L80 70 L80 85 L100 85 L100 70 L120 70 L120 85 L140 85"/>
    <path d="M70 110 L90 110 L90 125 L110 125 L110 110 L130 110"/>
    <path d="M80 95 L80 105 L120 105 L120 95"/>
    
    <!-- Side circuits -->
    <path d="M50 90 L65 90"/>
    <path d="M135 90 L150 90"/>
    <path d="M75 55 L75 65"/>
    <path d="M125 55 L125 65"/>
  </g>
  
  <!-- Circuit nodes -->
  <g fill="#00D4FF">
    <circle cx="80" cy="70" r="3"/>
    <circle cx="100" cy="85" r="3"/>
    <circle cx="120" cy="70" r="3"/>
    <circle cx="90" cy="110" r="3"/>
    <circle cx="110" cy="125" r="3"/>
    <circle cx="130" cy="110" r="3"/>
    <circle cx="100" cy="100" r="4"/>
  </g>
  
  <!-- AI text -->
  <text x="100" y="160" font-family="Arial, sans-serif" font-size="14" font-weight="bold" text-anchor="middle" fill="#7C3AED">AI</text>
</svg>