<svg width="200" height="200" viewBox="0 0 200 200" xmlns="http://www.w3.org/2000/svg">
  <defs>
    <linearGradient id="chipGradient" x1="0%" y1="0%" x2="100%" y2="100%">
      <stop offset="0%" style="stop-color:#1E293B"/>
      <stop offset="50%" style="stop-color:#64748B"/>
      <stop offset="100%" style="stop-color:#1E293B"/>
    </linearGradient>
    <linearGradient id="coreGradient" x1="0%" y1="0%" x2="100%" y2="100%">
      <stop offset="0%" style="stop-color:#8B5CF6"/>
      <stop offset="100%" style="stop-color:#A855F7"/>
    </linearGradient>
    <filter id="chipGlow">
      <feGaussianBlur stdDeviation="2" result="coloredBlur"/>
      <feMerge> 
        <feMergeNode in="coloredBlur"/>
        <feMergeNode in="SourceGraphic"/>
      </feMerge>
    </filter>
  </defs>
  
  <!-- Chip base -->
  <rect x="30" y="30" width="140" height="140" rx="5" ry="5" fill="url(#chipGradient)" stroke="#64748B" stroke-width="2"/>
  
  <!-- Pin connectors -->
  <g fill="#64748B">
    <!-- Top pins -->
    <rect x="50" y="20" width="8" height="20" rx="2"/>
    <rect x="70" y="20" width="8" height="20" rx="2"/>
    <rect x="90" y="20" width="8" height="20" rx="2"/>
    <rect x="110" y="20" width="8" height="20" rx="2"/>
    <rect x="130" y="20" width="8" height="20" rx="2"/>
    
    <!-- Bottom pins -->
    <rect x="50" y="160" width="8" height="20" rx="2"/>
    <rect x="70" y="160" width="8" height="20" rx="2"/>
    <rect x="90" y="160" width="8" height="20" rx="2"/>
    <rect x="110" y="160" width="8" height="20" rx="2"/>
    <rect x="130" y="160" width="8" height="20" rx="2"/>
    
    <!-- Left pins -->
    <rect x="20" y="50" width="20" height="8" ry="2"/>
    <rect x="20" y="70" width="20" height="8" ry="2"/>
    <rect x="20" y="90" width="20" height="8" ry="2"/>
    <rect x="20" y="110" width="20" height="8" ry="2"/>
    <rect x="20" y="130" width="20" height="8" ry="2"/>
    
    <!-- Right pins -->
    <rect x="160" y="50" width="20" height="8" ry="2"/>
    <rect x="160" y="70" width="20" height="8" ry="2"/>
    <rect x="160" y="90" width="20" height="8" ry="2"/>
    <rect x="160" y="110" width="20" height="8" ry="2"/>
    <rect x="160" y="130" width="20" height="8" ry="2"/>
  </g>
  
  <!-- Central processing core -->
  <rect x="60" y="60" width="80" height="80" rx="8" ry="8" fill="url(#coreGradient)" filter="url(#chipGlow)" stroke="#7C3AED" stroke-width="2"/>
  
  <!-- Circuit pathways on core -->
  <g stroke="#00D4FF" stroke-width="1.5" fill="none">
    <path d="M70 70 L90 70 L90 85 L110 85 L110 70 L130 70"/>
    <path d="M70 90 L85 90 L85 105 L115 105 L115 90 L130 90"/>
    <path d="M70 110 L80 110 L80 125 L120 125 L120 110 L130 110"/>
    <path d="M70 130 L130 130"/>
    
    <!-- Vertical lines -->
    <path d="M80 70 L80 85"/>
    <path d="M100 85 L100 105"/>
    <path d="M120 70 L120 85"/>
  </g>
  
  <!-- Processing units -->
  <g fill="#00D4FF">
    <rect x="75" y="75" width="10" height="10" rx="2"/>
    <rect x="95" y="75" width="10" height="10" rx="2"/>
    <rect x="115" y="75" width="10" height="10" rx="2"/>
    <rect x="85" y="95" width="10" height="10" rx="2"/>
    <rect x="105" y="95" width="10" height="10" rx="2"/>
    <rect x="95" y="115" width="10" height="10" rx="2"/>
  </g>
  
  <!-- AI identifier -->
  <text x="100" y="100" font-family="Arial, sans-serif" font-size="16" font-weight="bold" text-anchor="middle" fill="#FFFFFF">AI</text>
  
  <!-- Chip label -->
  <text x="100" y="190" font-family="Arial, sans-serif" font-size="12" font-weight="bold" text-anchor="middle" fill="#8B5CF6">AI PROCESSOR</text>
</svg>