<svg width="200" height="200" viewBox="0 0 200 200" xmlns="http://www.w3.org/2000/svg">
  <defs>
    <linearGradient id="quantumGradient" x1="0%" y1="0%" x2="100%" y2="100%">
      <stop offset="0%" style="stop-color:#8B5CF6"/>
      <stop offset="30%" style="stop-color:#00D4FF"/>
      <stop offset="70%" style="stop-color:#FF00FF"/>
      <stop offset="100%" style="stop-color:#A855F7"/>
    </linearGradient>
    <filter id="quantumGlow">
      <feGaussianBlur stdDeviation="3" result="coloredBlur"/>
      <feMerge> 
        <feMergeNode in="coloredBlur"/>
        <feMergeNode in="SourceGraphic"/>
      </feMerge>
    </filter>
    <filter id="pulse">
      <feGaussianBlur stdDeviation="2" result="coloredBlur"/>
      <feMerge> 
        <feMergeNode in="coloredBlur"/>
        <feMergeNode in="SourceGraphic"/>
      </feMerge>
    </filter>
  </defs>
  
  <!-- Quantum chamber outline -->
  <circle cx="100" cy="100" r="80" fill="none" stroke="url(#quantumGradient)" stroke-width="4" filter="url(#quantumGlow)"/>
  
  <!-- Inner quantum field -->
  <circle cx="100" cy="100" r="60" fill="none" stroke="#00D4FF" stroke-width="2" opacity="0.6"/>
  <circle cx="100" cy="100" r="40" fill="none" stroke="#FF00FF" stroke-width="2" opacity="0.6"/>
  
  <!-- Quantum bits (qubits) -->
  <g transform="translate(100,100)">
    <!-- Center qubit -->
    <circle cx="0" cy="0" r="8" fill="#FFFFFF" filter="url(#pulse)" stroke="#8B5CF6" stroke-width="2"/>
    
    <!-- Surrounding qubits -->
    <g transform="rotate(0)">
      <circle cx="0" cy="-30" r="6" fill="#00D4FF" filter="url(#pulse)"/>
    </g>
    <g transform="rotate(60)">
      <circle cx="0" cy="-30" r="6" fill="#FF00FF" filter="url(#pulse)"/>
    </g>
    <g transform="rotate(120)">
      <circle cx="0" cy="-30" r="6" fill="#00D4FF" filter="url(#pulse)"/>
    </g>
    <g transform="rotate(180)">
      <circle cx="0" cy="-30" r="6" fill="#FF00FF" filter="url(#pulse)"/>
    </g>
    <g transform="rotate(240)">
      <circle cx="0" cy="-30" r="6" fill="#00D4FF" filter="url(#pulse)"/>
    </g>
    <g transform="rotate(300)">
      <circle cx="0" cy="-30" r="6" fill="#FF00FF" filter="url(#pulse)"/>
    </g>
    
    <!-- Outer ring qubits -->
    <g transform="rotate(30)">
      <circle cx="0" cy="-50" r="4" fill="#8B5CF6" filter="url(#pulse)"/>
    </g>
    <g transform="rotate(90)">
      <circle cx="0" cy="-50" r="4" fill="#A855F7" filter="url(#pulse)"/>
    </g>
    <g transform="rotate(150)">
      <circle cx="0" cy="-50" r="4" fill="#8B5CF6" filter="url(#pulse)"/>
    </g>
    <g transform="rotate(210)">
      <circle cx="0" cy="-50" r="4" fill="#A855F7" filter="url(#pulse)"/>
    </g>
    <g transform="rotate(270)">
      <circle cx="0" cy="-50" r="4" fill="#8B5CF6" filter="url(#pulse)"/>
    </g>
    <g transform="rotate(330)">
      <circle cx="0" cy="-50" r="4" fill="#A855F7" filter="url(#pulse)"/>
    </g>
  </g>
  
  <!-- Quantum entanglement lines -->
  <g stroke="#00D4FF" stroke-width="1" fill="none" opacity="0.4">
    <path d="M100 70 Q120 80 100 130 Q80 120 100 70"/>
    <path d="M130 100 Q120 120 70 100 Q80 80 130 100"/>
    <path d="M126 74 Q106 94 74 126 Q94 106 126 74"/>
    <path d="M74 74 Q94 94 126 126 Q106 106 74 74"/>
  </g>
  
  <!-- Quantum state indicators -->
  <g fill="#FFFFFF" font-family="Arial, sans-serif" font-size="10" text-anchor="middle">
    <text x="100" y="35" fill="#8B5CF6">|0⟩</text>
    <text x="100" y="175" fill="#8B5CF6">|1⟩</text>
    <text x="35" y="105" fill="#8B5CF6">|+⟩</text>
    <text x="165" y="105" fill="#8B5CF6">|-⟩</text>
  </g>
  
  <!-- Quantum processor label -->
  <text x="100" y="195" font-family="Arial, sans-serif" font-size="12" font-weight="bold" text-anchor="middle" fill="#8B5CF6">QUANTUM AI</text>
</svg>