<svg width="200" height="200" viewBox="0 0 200 200" xmlns="http://www.w3.org/2000/svg">
  <defs>
    <linearGradient id="robotGradient" x1="0%" y1="0%" x2="100%" y2="100%">
      <stop offset="0%" style="stop-color:#8B5CF6"/>
      <stop offset="100%" style="stop-color:#A855F7"/>
    </linearGradient>
    <filter id="glow">
      <feGaussianBlur stdDeviation="3" result="coloredBlur"/>
      <feMerge> 
        <feMergeNode in="coloredBlur"/>
        <feMergeNode in="SourceGraphic"/>
      </feMerge>
    </filter>
  </defs>
  
  <!-- Robot head body -->
  <rect x="40" y="50" width="120" height="120" rx="20" ry="20" fill="url(#robotGradient)" stroke="#7C3AED" stroke-width="3"/>
  
  <!-- Eyes -->
  <circle cx="75" cy="90" r="12" fill="#00D4FF" filter="url(#glow)"/>
  <circle cx="125" cy="90" r="12" fill="#00D4FF" filter="url(#glow)"/>
  
  <!-- Eye pupils -->
  <circle cx="75" cy="90" r="6" fill="#0A0A0A"/>
  <circle cx="125" cy="90" r="6" fill="#0A0A0A"/>
  
  <!-- Mouth/speaker grille -->
  <rect x="70" y="120" width="60" height="20" rx="10" ry="10" fill="#1E293B"/>
  <g stroke="#64748B" stroke-width="1">
    <line x1="75" y1="125" x2="75" y2="135"/>
    <line x1="80" y1="125" x2="80" y2="135"/>
    <line x1="85" y1="125" x2="85" y2="135"/>
    <line x1="90" y1="125" x2="90" y2="135"/>
    <line x1="95" y1="125" x2="95" y2="135"/>
    <line x1="100" y1="125" x2="100" y2="135"/>
    <line x1="105" y1="125" x2="105" y2="135"/>
    <line x1="110" y1="125" x2="110" y2="135"/>
    <line x1="115" y1="125" x2="115" y2="135"/>
    <line x1="120" y1="125" x2="120" y2="135"/>
    <line x1="125" y1="125" x2="125" y2="135"/>
  </g>
  
  <!-- Antenna -->
  <line x1="100" y1="50" x2="100" y2="30" stroke="#7C3AED" stroke-width="3"/>
  <circle cx="100" cy="25" r="5" fill="#00D4FF" filter="url(#glow)"/>
  
  <!-- Side panels -->
  <rect x="30" y="80" width="8" height="40" rx="4" ry="4" fill="#7C3AED"/>
  <rect x="162" y="80" width="8" height="40" rx="4" ry="4" fill="#7C3AED"/>
  
  <!-- Circuit details -->
  <g stroke="#00D4FF" stroke-width="1" fill="none">
    <path d="M45 60 L55 60 L55 70"/>
    <path d="M145 60 L155 60 L155 70"/>
    <path d="M45 150 L55 150 L55 160"/>
    <path d="M145 150 L155 150 L155 160"/>
  </g>
  
  <!-- Status indicators -->
  <circle cx="55" cy="75" r="2" fill="#00D4FF"/>
  <circle cx="145" cy="75" r="2" fill="#FF00FF"/>
</svg>