<svg width="400" height="300" viewBox="0 0 400 300" xmlns="http://www.w3.org/2000/svg">
  <defs>
    <linearGradient id="riskGrad" x1="0%" y1="0%" x2="100%" y2="100%">
      <stop offset="0%" style="stop-color:#FF0066"/>
      <stop offset="50%" style="stop-color:#8B5CF6"/>
      <stop offset="100%" style="stop-color:#00FF88"/>
    </linearGradient>
  </defs>
  
  <!-- Shield icon -->
  <g transform="translate(200, 120)">
    <path d="M0 -40 L20 -30 L20 10 Q20 30 0 40 Q-20 30 -20 10 L-20 -30 Z" 
          fill="url(#riskGrad)" stroke="#7C3AED" stroke-width="2"/>
    <text x="0" y="5" font-family="Arial, sans-serif" font-size="16" font-weight="bold" text-anchor="middle" fill="#FFFFFF">🛡</text>
  </g>
  
  <!-- Risk levels -->
  <g transform="translate(100, 200)">
    <rect x="0" y="0" width="60" height="8" fill="#1E293B" rx="4"/>
    <rect x="0" y="0" width="20" height="8" fill="#00FF88" rx="4"/>
    <text x="30" y="20" font-family="Arial, sans-serif" font-size="8" text-anchor="middle" fill="#00FF88">LOW RISK</text>
  </g>
  
  <g transform="translate(240, 200)">
    <rect x="0" y="0" width="60" height="8" fill="#1E293B" rx="4"/>
    <rect x="0" y="0" width="35" height="8" fill="#8B5CF6" rx="4"/>
    <text x="30" y="20" font-family="Arial, sans-serif" font-size="8" text-anchor="middle" fill="#8B5CF6">OPTIMAL</text>
  </g>
  
  <!-- AI monitoring -->
  <g transform="translate(200, 250)">
    <rect x="-50" y="0" width="100" height="20" fill="#8B5CF6" fill-opacity="0.2" stroke="#8B5CF6" rx="10"/>
    <text x="0" y="13" font-family="Arial, sans-serif" font-size="10" font-weight="bold" text-anchor="middle" fill="#8B5CF6">AI RISK CONTROL</text>
  </g>
</svg>