<svg width="400" height="300" viewBox="0 0 400 300" xmlns="http://www.w3.org/2000/svg">
  <defs>
    <linearGradient id="analyticsFeatureGrad" x1="0%" y1="100%" x2="0%" y2="0%">
      <stop offset="0%" style="stop-color:#8B5CF6"/>
      <stop offset="100%" style="stop-color:#A855F7"/>
    </linearGradient>
  </defs>
  
  <!-- Main chart -->
  <rect x="50" y="50" width="300" height="150" fill="#1E293B" stroke="#64748B" stroke-width="2" rx="8"/>
  
  <!-- Chart bars -->
  <g fill="url(#analyticsFeatureGrad)">
    <rect x="70" y="140" width="20" height="40" rx="2"/>
    <rect x="100" y="120" width="20" height="60" rx="2"/>
    <rect x="130" y="100" width="20" height="80" rx="2"/>
    <rect x="160" y="90" width="20" height="90" rx="2"/>
    <rect x="190" y="80" width="20" height="100" rx="2"/>
    <rect x="220" y="70" width="20" height="110" rx="2"/>
    <rect x="250" y="85" width="20" height="95" rx="2"/>
    <rect x="280" y="95" width="20" height="85" rx="2"/>
    <rect x="310" y="110" width="20" height="70" rx="2"/>
  </g>
  
  <!-- Trend line -->
  <path d="M80 150 Q120 130 160 100 Q200 85 240 75 Q280 90 320 120" 
        fill="none" stroke="#00D4FF" stroke-width="3"/>
  
  <!-- AI analysis indicators -->
  <g transform="translate(280, 60)">
    <circle cx="0" cy="0" r="8" fill="#FF00FF"/>
    <text x="0" y="3" font-family="Arial, sans-serif" font-size="6" font-weight="bold" text-anchor="middle" fill="#FFFFFF">AI</text>
  </g>
  
  <!-- Smart insights -->
  <g transform="translate(80, 230)">
    <rect x="0" y="0" width="100" height="30" fill="#00D4FF" fill-opacity="0.2" stroke="#00D4FF" rx="15"/>
    <text x="50" y="18" font-family="Arial, sans-serif" font-size="10" font-weight="bold" text-anchor="middle" fill="#00D4FF">SMART INSIGHTS</text>
  </g>
  
  <g transform="translate(220, 230)">
    <rect x="0" y="0" width="100" height="30" fill="#00FF88" fill-opacity="0.2" stroke="#00FF88" rx="15"/>
    <text x="50" y="18" font-family="Arial, sans-serif" font-size="10" font-weight="bold" text-anchor="middle" fill="#00FF88">PREDICTIVE AI</text>
  </g>
</svg>